<?xml version="1.0" encoding="UTF-8"?>
<svg xmlns="http://www.w3.org/2000/svg" xmlns:xlink="http://www.w3.org/1999/xlink" width="100pt" height="100pt" viewBox="0 0 100 100" version="1.1">
<g id="surface4456746">
<path style=" stroke:none;fill-rule:nonzero;fill:rgb(28.235294%,16.862745%,41.176471%);fill-opacity:1;" d="M 49.75 6.625 C 40.367188 6.835938 34.429688 10.632812 31.875 16.5 C 29.445312 22.085938 29.953125 29.125 31.6875 36.4375 C 30.757812 37.53125 29.992188 39.070312 30.1875 41.375 L 30.1875 41.5 C 30.523438 43.9375 31.257812 45.65625 32.1875 46.875 C 32.632812 47.453125 33.265625 47.484375 33.8125 47.8125 C 34.296875 50.539062 35.382812 53.140625 36.625 55.1875 C 36.6875 55.484375 36.8125 55.757812 37 56 C 37 56 37.203125 56.257812 37.25 56.3125 C 37.875 57.25 38.1875 58.554688 38.1875 60 C 38.1875 61.539062 38.164062 62.96875 38 64.5625 C 37.398438 66.078125 35.898438 67.289062 33.5 68.5 C 30.992188 69.765625 27.710938 70.929688 24.375 72.375 C 21.039062 73.820312 17.65625 75.554688 14.9375 78.3125 C 12.21875 81.070312 10.273438 84.890625 10 89.875 L 9.875 92 L 90.125 92 L 90 89.875 C 89.726562 84.890625 87.828125 81.078125 85.125 78.3125 C 82.421875 75.546875 79.023438 73.820312 75.6875 72.375 C 72.351562 70.929688 69.046875 69.773438 66.5 68.5 C 64.03125 67.265625 62.484375 66.007812 61.8125 64.4375 C 61.65625 62.546875 61.625 61.054688 61.625 59.375 C 61.625 58.304688 61.992188 57.335938 62.625 56.375 C 62.640625 56.351562 62.671875 56.335938 62.6875 56.3125 C 62.695312 56.296875 62.8125 56.1875 62.8125 56.1875 C 63.0625 55.929688 63.234375 55.601562 63.3125 55.25 C 64.523438 53.171875 65.53125 50.53125 66 47.875 C 66.625 47.546875 67.328125 47.507812 67.8125 46.875 C 68.773438 45.617188 69.335938 43.828125 69.5625 41.375 C 69.742188 39.257812 69.132812 37.71875 68.1875 36.5625 C 69.226562 33.359375 70.460938 28.234375 70.0625 23 C 69.84375 20.125 69.085938 17.257812 67.375 14.875 C 65.828125 12.71875 63.328125 11.242188 60.1875 10.5625 C 58.070312 7.734375 54.226562 6.625 49.8125 6.625 Z M 49.8125 10.625 C 49.835938 10.625 49.851562 10.625 49.875 10.625 C 53.867188 10.640625 56.421875 11.765625 57.25 13.1875 L 57.75 14.0625 L 58.75 14.1875 C 61.5 14.570312 63.007812 15.632812 64.125 17.1875 C 65.242188 18.742188 65.882812 20.914062 66.0625 23.3125 C 66.429688 28.117188 65.039062 33.75 64.125 36.3125 L 63.5 38 L 65.0625 38.8125 C 65.046875 38.867188 65.703125 39.53125 65.625 41 C 65.625 41.03125 65.625 41.03125 65.625 41.0625 C 65.4375 42.945312 64.953125 44.007812 64.625 44.4375 C 64.289062 44.875 64.117188 44.8125 64.1875 44.8125 L 62.4375 44.8125 L 62.1875 46.5625 C 61.84375 49.15625 60.523438 52.421875 59.375 54.0625 L 59.3125 54.0625 C 59.195312 54.234375 59.109375 54.4375 59 54.625 C 58.476562 55.234375 57.6875 56.039062 56.5625 57 C 54.695312 58.59375 52.21875 60 50 60 C 47.796875 60 45.296875 58.523438 43.375 56.875 C 41.710938 55.445312 40.71875 54.21875 40.4375 53.875 C 40.429688 53.859375 40.445312 53.828125 40.4375 53.8125 C 39.257812 52.109375 37.90625 49.125 37.5625 46.5625 L 37.375 44.8125 L 35.75 44.8125 C 35.679688 44.78125 35.492188 44.679688 35.3125 44.4375 C 34.960938 43.976562 34.460938 42.898438 34.1875 41.0625 C 34.1875 41.023438 34.1875 41.039062 34.1875 41 C 34.179688 40.96875 34.195312 40.96875 34.1875 40.9375 C 34.15625 39.421875 35.09375 38.578125 34.9375 38.6875 L 36.0625 37.875 L 35.75 36.5 C 33.90625 29.210938 33.617188 22.609375 35.5625 18.125 C 37.507812 13.65625 41.445312 10.828125 49.8125 10.625 Z M 42.1875 61.0625 C 44.296875 62.617188 46.9375 64 50 64 C 53 64 55.570312 62.6875 57.625 61.1875 C 57.632812 62.40625 57.671875 63.65625 57.8125 65.1875 L 57.8125 65.4375 L 57.9375 65.6875 C 58.289062 66.609375 58.789062 67.390625 59.375 68.125 C 59.351562 68.203125 59.328125 68.289062 59.3125 68.375 C 59.3125 68.375 58.835938 69.6875 57.4375 71.125 C 56.039062 72.5625 53.867188 74 50 74 C 46.148438 74 43.898438 72.5 42.4375 71 C 40.976562 69.5 40.5 68.125 40.5 68.125 C 41.078125 67.375 41.554688 66.570312 41.875 65.625 L 42 65.25 C 42.171875 63.734375 42.1875 62.367188 42.1875 61.0625 Z M 62.5 70.875 C 63.203125 71.328125 63.929688 71.75 64.6875 72.125 C 67.609375 73.578125 70.921875 74.703125 74.0625 76.0625 C 77.203125 77.421875 80.132812 78.960938 82.25 81.125 C 83.9375 82.851562 84.953125 85.148438 85.5 88 L 14.5 88 C 15.046875 85.148438 16.054688 82.851562 17.75 81.125 C 19.875 78.960938 22.859375 77.421875 26 76.0625 C 29.140625 74.703125 32.421875 73.585938 35.3125 72.125 C 36.03125 71.757812 36.765625 71.375 37.4375 70.9375 C 37.882812 71.742188 38.570312 72.789062 39.5625 73.8125 C 41.601562 75.914062 45.054688 78 50 78 C 54.929688 78 58.3125 75.9375 60.3125 73.875 C 61.40625 72.75 62.070312 71.703125 62.5 70.875 Z M 62.5 70.875 "/>
</g>
</svg>
